<mxfile host="app.diagrams.net" agent="Mozilla/5.0 (Windows NT 10.0; Win64; x64) AppleWebKit/537.36 (KHTML, like Gecko) Chrome/138.0.0.0 Safari/537.36" version="28.0.7">
  <diagram name="Page-1" id="PFwjI5xz76DF85EKXyYI">
    <mxGraphModel dx="2377" dy="1308" grid="1" gridSize="13" guides="0" tooltips="1" connect="1" arrows="1" fold="1" page="1" pageScale="1" pageWidth="4681" pageHeight="3300" background="light-dark(#FFFFFF,#FFFFFF)" math="0" shadow="0">
      <root>
        <mxCell id="0" />
        <mxCell id="1" parent="0" />
        <mxCell id="Izek-PB7fgDzVprNoVY3-15" value="&lt;h2&gt;&lt;span style=&quot;font-weight: normal;&quot;&gt;SALE&lt;/span&gt;&lt;/h2&gt;" style="whiteSpace=wrap;html=1;align=center;strokeColor=#FFFFFF;fontColor=#FFFFFF;fillColor=#182E3E;" parent="1" vertex="1">
          <mxGeometry x="1163.5" y="533" width="143" height="52" as="geometry" />
        </mxCell>
        <mxCell id="Izek-PB7fgDzVprNoVY3-16" value="&lt;h2&gt;&lt;span style=&quot;font-weight: normal;&quot;&gt;CUSTOMER&lt;/span&gt;&lt;/h2&gt;" style="whiteSpace=wrap;html=1;align=center;strokeColor=#FFFFFF;fontColor=#FFFFFF;fillColor=#182E3E;" parent="1" vertex="1">
          <mxGeometry x="692.9" y="533" width="143" height="52" as="geometry" />
        </mxCell>
        <mxCell id="Izek-PB7fgDzVprNoVY3-17" value="&lt;h2&gt;&lt;font face=&quot;Helvetica&quot; style=&quot;font-weight: normal;&quot;&gt;REPAIR&lt;/font&gt;&lt;/h2&gt;" style="whiteSpace=wrap;html=1;align=center;strokeColor=#FFFFFF;fontColor=#FFFFFF;fillColor=#182E3E;" parent="1" vertex="1">
          <mxGeometry x="692.9" y="260" width="143" height="52" as="geometry" />
        </mxCell>
        <mxCell id="G7WZexkPzq9MRGBm2pqB-112" value="" style="edgeStyle=orthogonalEdgeStyle;rounded=0;orthogonalLoop=1;jettySize=auto;html=1;" edge="1" parent="1" source="Izek-PB7fgDzVprNoVY3-22">
          <mxGeometry relative="1" as="geometry">
            <mxPoint x="764.4000000000001" y="297" as="targetPoint" />
          </mxGeometry>
        </mxCell>
        <mxCell id="Izek-PB7fgDzVprNoVY3-22" value="&lt;h2&gt;&lt;span style=&quot;font-weight: normal;&quot;&gt;REQUESTS&lt;/span&gt;&lt;/h2&gt;" style="shape=rhombus;perimeter=rhombusPerimeter;whiteSpace=wrap;html=1;align=center;strokeColor=#FFFFFF;fontColor=#FFFFFF;fillColor=#182E3E;" parent="1" vertex="1">
          <mxGeometry x="676" y="377" width="176.8" height="90.67" as="geometry" />
        </mxCell>
        <mxCell id="Izek-PB7fgDzVprNoVY3-24" value="" style="endArrow=none;html=1;rounded=0;strokeColor=light-dark(#FFFFFF, #1b1d1e);fontFamily=Helvetica;fontSize=12;fontColor=#FFFFFF;exitX=0.5;exitY=1;exitDx=0;exitDy=0;entryX=0.5;entryY=0;entryDx=0;entryDy=0;" parent="1" source="Izek-PB7fgDzVprNoVY3-22" target="Izek-PB7fgDzVprNoVY3-16" edge="1">
          <mxGeometry relative="1" as="geometry">
            <mxPoint x="754" y="481" as="sourcePoint" />
            <mxPoint x="914" y="481" as="targetPoint" />
          </mxGeometry>
        </mxCell>
        <mxCell id="Izek-PB7fgDzVprNoVY3-25" value="1" style="resizable=0;html=1;whiteSpace=wrap;align=right;verticalAlign=bottom;strokeColor=#FFFFFF;fontFamily=Helvetica;fontSize=12;fontColor=#FFFFFF;fillColor=#182E3E;" parent="Izek-PB7fgDzVprNoVY3-24" connectable="0" vertex="1">
          <mxGeometry x="1" relative="1" as="geometry">
            <mxPoint x="-6" y="-13" as="offset" />
          </mxGeometry>
        </mxCell>
        <mxCell id="Izek-PB7fgDzVprNoVY3-31" value="" style="shape=link;html=1;rounded=0;strokeColor=light-dark(#FFFFFF, #1b1d1e);fontFamily=Helvetica;fontSize=12;fontColor=#FFFFFF;exitX=0.5;exitY=0;exitDx=0;exitDy=0;" parent="1" source="Izek-PB7fgDzVprNoVY3-22" target="Izek-PB7fgDzVprNoVY3-17" edge="1">
          <mxGeometry relative="1" as="geometry">
            <mxPoint x="620" y="351" as="sourcePoint" />
            <mxPoint x="780" y="351" as="targetPoint" />
          </mxGeometry>
        </mxCell>
        <mxCell id="Izek-PB7fgDzVprNoVY3-32" value="N" style="resizable=0;html=1;whiteSpace=wrap;align=right;verticalAlign=bottom;strokeColor=#FFFFFF;fontFamily=Helvetica;fontSize=12;fontColor=#FFFFFF;fillColor=#182E3E;" parent="Izek-PB7fgDzVprNoVY3-31" connectable="0" vertex="1">
          <mxGeometry x="1" relative="1" as="geometry">
            <mxPoint x="-6" y="26" as="offset" />
          </mxGeometry>
        </mxCell>
        <mxCell id="Izek-PB7fgDzVprNoVY3-34" value="" style="edgeLabel;html=1;align=center;verticalAlign=middle;resizable=0;points=[];strokeColor=#FFFFFF;fontFamily=Helvetica;fontSize=12;fontColor=#FFFFFF;fillColor=#182E3E;" parent="Izek-PB7fgDzVprNoVY3-31" vertex="1" connectable="0">
          <mxGeometry x="0.05" y="-6" relative="1" as="geometry">
            <mxPoint as="offset" />
          </mxGeometry>
        </mxCell>
        <mxCell id="Izek-PB7fgDzVprNoVY3-35" value="&lt;h2&gt;&lt;span style=&quot;font-weight: 400;&quot;&gt;MAKES_A&lt;/span&gt;&lt;/h2&gt;" style="shape=rhombus;perimeter=rhombusPerimeter;whiteSpace=wrap;html=1;align=center;strokeColor=#FFFFFF;fontColor=#FFFFFF;fillColor=#182E3E;" parent="1" vertex="1">
          <mxGeometry x="910" y="507" width="202.8" height="104" as="geometry" />
        </mxCell>
        <mxCell id="Izek-PB7fgDzVprNoVY3-36" value="" style="endArrow=none;html=1;rounded=0;strokeColor=light-dark(#FFFFFF, #1b1d1e);fontFamily=Helvetica;fontSize=12;fontColor=#FFFFFF;entryX=1;entryY=0.5;entryDx=0;entryDy=0;exitX=0;exitY=0.5;exitDx=0;exitDy=0;" parent="1" source="Izek-PB7fgDzVprNoVY3-35" target="Izek-PB7fgDzVprNoVY3-16" edge="1">
          <mxGeometry relative="1" as="geometry">
            <mxPoint x="689" y="598" as="sourcePoint" />
            <mxPoint x="849" y="598" as="targetPoint" />
          </mxGeometry>
        </mxCell>
        <mxCell id="Izek-PB7fgDzVprNoVY3-37" value="1" style="resizable=0;html=1;whiteSpace=wrap;align=right;verticalAlign=bottom;strokeColor=#FFFFFF;fontFamily=Helvetica;fontSize=12;fontColor=#FFFFFF;fillColor=#182E3E;" parent="Izek-PB7fgDzVprNoVY3-36" connectable="0" vertex="1">
          <mxGeometry x="1" relative="1" as="geometry">
            <mxPoint x="13" as="offset" />
          </mxGeometry>
        </mxCell>
        <mxCell id="Izek-PB7fgDzVprNoVY3-38" value="" style="shape=link;html=1;rounded=0;strokeColor=light-dark(#23445D, #1b1d1e);fontFamily=Helvetica;fontSize=12;fontColor=#FFFFFF;width=4;exitX=1;exitY=0.5;exitDx=0;exitDy=0;entryX=0;entryY=0.5;entryDx=0;entryDy=0;" parent="1" source="Izek-PB7fgDzVprNoVY3-35" target="Izek-PB7fgDzVprNoVY3-15" edge="1">
          <mxGeometry relative="1" as="geometry">
            <mxPoint x="984" y="558.5" as="sourcePoint" />
            <mxPoint x="1144" y="558.5" as="targetPoint" />
          </mxGeometry>
        </mxCell>
        <mxCell id="Izek-PB7fgDzVprNoVY3-39" value="N" style="resizable=0;html=1;whiteSpace=wrap;align=right;verticalAlign=bottom;strokeColor=#FFFFFF;fontFamily=Helvetica;fontSize=12;fontColor=#FFFFFF;fillColor=#182E3E;" parent="Izek-PB7fgDzVprNoVY3-38" connectable="0" vertex="1">
          <mxGeometry x="1" relative="1" as="geometry">
            <mxPoint x="-6" as="offset" />
          </mxGeometry>
        </mxCell>
        <mxCell id="Izek-PB7fgDzVprNoVY3-60" value="" style="edgeLabel;html=1;align=center;verticalAlign=middle;resizable=0;points=[];strokeColor=#FFFFFF;fontFamily=Helvetica;fontSize=12;fontColor=#FFFFFF;fillColor=#182E3E;" parent="Izek-PB7fgDzVprNoVY3-38" vertex="1" connectable="0">
          <mxGeometry x="-0.0769" y="-3" relative="1" as="geometry">
            <mxPoint as="offset" />
          </mxGeometry>
        </mxCell>
        <mxCell id="G7WZexkPzq9MRGBm2pqB-114" value="" style="edgeStyle=orthogonalEdgeStyle;rounded=0;orthogonalLoop=1;jettySize=auto;html=1;" edge="1" parent="1" source="Izek-PB7fgDzVprNoVY3-41">
          <mxGeometry relative="1" as="geometry">
            <mxPoint x="1384.5000000000005" y="687" as="targetPoint" />
          </mxGeometry>
        </mxCell>
        <mxCell id="Izek-PB7fgDzVprNoVY3-41" value="&lt;h2&gt;&lt;span style=&quot;font-weight: 400;&quot;&gt;INSTRUMENTS&lt;/span&gt;&lt;/h2&gt;" style="whiteSpace=wrap;html=1;align=center;strokeColor=#FFFFFF;fontColor=#FFFFFF;fillColor=#182E3E;" parent="1" vertex="1">
          <mxGeometry x="1306.5" y="767" width="156" height="56.73" as="geometry" />
        </mxCell>
        <mxCell id="Izek-PB7fgDzVprNoVY3-42" value="&lt;h2&gt;&lt;span style=&quot;font-weight: 400;&quot;&gt;INCLUDES&lt;/span&gt;&lt;/h2&gt;" style="shape=rhombus;perimeter=rhombusPerimeter;whiteSpace=wrap;html=1;align=center;strokeColor=#FFFFFF;fontColor=#FFFFFF;fillColor=#182E3E;" parent="1" vertex="1">
          <mxGeometry x="1300" y="622" width="169" height="86.67" as="geometry" />
        </mxCell>
        <mxCell id="Izek-PB7fgDzVprNoVY3-50" value="" style="shape=link;html=1;rounded=0;strokeColor=light-dark(#FFFFFF, #1b1d1e);fontFamily=Helvetica;fontSize=12;fontColor=#FFFFFF;entryX=0.5;entryY=0;entryDx=0;entryDy=0;exitX=1;exitY=0.5;exitDx=0;exitDy=0;" parent="1" source="Izek-PB7fgDzVprNoVY3-15" target="Izek-PB7fgDzVprNoVY3-42" edge="1">
          <mxGeometry relative="1" as="geometry">
            <mxPoint x="1326" y="559" as="sourcePoint" />
            <mxPoint x="1397.5" y="622" as="targetPoint" />
          </mxGeometry>
        </mxCell>
        <mxCell id="Izek-PB7fgDzVprNoVY3-51" value="1" style="resizable=0;html=1;whiteSpace=wrap;align=right;verticalAlign=bottom;strokeColor=#FFFFFF;fontFamily=Helvetica;fontSize=12;fontColor=#FFFFFF;fillColor=#182E3E;" parent="Izek-PB7fgDzVprNoVY3-50" connectable="0" vertex="1">
          <mxGeometry x="1" relative="1" as="geometry">
            <mxPoint x="-58" y="-63" as="offset" />
          </mxGeometry>
        </mxCell>
        <mxCell id="Izek-PB7fgDzVprNoVY3-53" value="" style="endArrow=none;html=1;rounded=0;strokeColor=light-dark(#23445D, #1b1d1e);fontFamily=Helvetica;fontSize=12;fontColor=#FFFFFF;entryX=0.5;entryY=0;entryDx=0;entryDy=0;exitX=0.5;exitY=1;exitDx=0;exitDy=0;" parent="1" source="Izek-PB7fgDzVprNoVY3-42" target="Izek-PB7fgDzVprNoVY3-41" edge="1">
          <mxGeometry relative="1" as="geometry">
            <mxPoint x="1385" y="715" as="sourcePoint" />
            <mxPoint x="1395" y="728" as="targetPoint" />
          </mxGeometry>
        </mxCell>
        <mxCell id="Izek-PB7fgDzVprNoVY3-54" value="N" style="resizable=0;html=1;whiteSpace=wrap;align=right;verticalAlign=bottom;strokeColor=#FFFFFF;fontFamily=Helvetica;fontSize=12;fontColor=#FFFFFF;fillColor=#182E3E;" parent="Izek-PB7fgDzVprNoVY3-53" connectable="0" vertex="1">
          <mxGeometry x="1" relative="1" as="geometry" />
        </mxCell>
        <mxCell id="Izek-PB7fgDzVprNoVY3-57" value="&lt;h2&gt;&lt;span style=&quot;font-weight: 400;&quot;&gt;COMPANY&lt;/span&gt;&lt;/h2&gt;" style="whiteSpace=wrap;html=1;align=center;strokeColor=#FFFFFF;fontColor=#FFFFFF;fillColor=#182E3E;" parent="1" vertex="1">
          <mxGeometry x="910" y="871" width="143" height="52" as="geometry" />
        </mxCell>
        <mxCell id="Izek-PB7fgDzVprNoVY3-58" value="&lt;h2&gt;&lt;span style=&quot;font-weight: 400;&quot;&gt;MANUFACTURED_BY&lt;/span&gt;&lt;/h2&gt;" style="shape=rhombus;perimeter=rhombusPerimeter;whiteSpace=wrap;html=1;align=center;strokeColor=#FFFFFF;fontColor=#FFFFFF;fillColor=#182E3E;" parent="1" vertex="1">
          <mxGeometry x="1079" y="832" width="253.5" height="130" as="geometry" />
        </mxCell>
        <mxCell id="Izek-PB7fgDzVprNoVY3-59" style="edgeStyle=orthogonalEdgeStyle;rounded=0;orthogonalLoop=1;jettySize=auto;html=1;exitX=0.5;exitY=0;exitDx=0;exitDy=0;entryX=0.583;entryY=-0.018;entryDx=0;entryDy=0;entryPerimeter=0;strokeColor=#23445D;fontFamily=Helvetica;fontSize=12;fontColor=#FFFFFF;" parent="1" source="Izek-PB7fgDzVprNoVY3-41" target="Izek-PB7fgDzVprNoVY3-41" edge="1">
          <mxGeometry relative="1" as="geometry" />
        </mxCell>
        <mxCell id="Izek-PB7fgDzVprNoVY3-61" value="" style="shape=link;html=1;rounded=0;strokeColor=light-dark(#23445D, #1b1d1e);fontFamily=Helvetica;fontSize=12;fontColor=#FFFFFF;width=0;exitX=1;exitY=0.5;exitDx=0;exitDy=0;entryX=0.5;entryY=1;entryDx=0;entryDy=0;" parent="1" source="Izek-PB7fgDzVprNoVY3-58" target="Izek-PB7fgDzVprNoVY3-41" edge="1">
          <mxGeometry relative="1" as="geometry">
            <mxPoint x="1326" y="870" as="sourcePoint" />
            <mxPoint x="1404" y="870" as="targetPoint" />
          </mxGeometry>
        </mxCell>
        <mxCell id="Izek-PB7fgDzVprNoVY3-62" value="N" style="resizable=0;html=1;whiteSpace=wrap;align=right;verticalAlign=bottom;strokeColor=#FFFFFF;fontFamily=Helvetica;fontSize=12;fontColor=#FFFFFF;fillColor=#182E3E;" parent="Izek-PB7fgDzVprNoVY3-61" connectable="0" vertex="1">
          <mxGeometry x="1" relative="1" as="geometry">
            <mxPoint x="-20" y="21" as="offset" />
          </mxGeometry>
        </mxCell>
        <mxCell id="Izek-PB7fgDzVprNoVY3-63" value="" style="edgeLabel;html=1;align=center;verticalAlign=middle;resizable=0;points=[];strokeColor=#FFFFFF;fontFamily=Helvetica;fontSize=12;fontColor=#FFFFFF;fillColor=#182E3E;" parent="Izek-PB7fgDzVprNoVY3-61" vertex="1" connectable="0">
          <mxGeometry x="-0.0769" y="-3" relative="1" as="geometry">
            <mxPoint as="offset" />
          </mxGeometry>
        </mxCell>
        <mxCell id="Izek-PB7fgDzVprNoVY3-66" value="" style="shape=link;html=1;rounded=0;strokeColor=light-dark(#23445D, #1b1d1e);fontFamily=Helvetica;fontSize=12;fontColor=#FFFFFF;entryX=0;entryY=0.5;entryDx=0;entryDy=0;exitX=1;exitY=0.5;exitDx=0;exitDy=0;" parent="1" source="Izek-PB7fgDzVprNoVY3-57" target="Izek-PB7fgDzVprNoVY3-58" edge="1">
          <mxGeometry relative="1" as="geometry">
            <mxPoint x="958" y="865.25" as="sourcePoint" />
            <mxPoint x="1043" y="928.75" as="targetPoint" />
          </mxGeometry>
        </mxCell>
        <mxCell id="Izek-PB7fgDzVprNoVY3-67" value="1" style="resizable=0;html=1;whiteSpace=wrap;align=right;verticalAlign=bottom;strokeColor=#FFFFFF;fontFamily=Helvetica;fontSize=12;fontColor=#FFFFFF;fillColor=#182E3E;" parent="Izek-PB7fgDzVprNoVY3-66" connectable="0" vertex="1">
          <mxGeometry x="1" relative="1" as="geometry">
            <mxPoint x="-14" as="offset" />
          </mxGeometry>
        </mxCell>
        <mxCell id="Izek-PB7fgDzVprNoVY3-68" value="&lt;h2&gt;&lt;span style=&quot;font-weight: 400;&quot;&gt;EMPLOYEE&lt;/span&gt;&lt;/h2&gt;" style="whiteSpace=wrap;html=1;align=center;strokeColor=#FFFFFF;fontColor=#FFFFFF;fillColor=#182E3E;" parent="1" vertex="1">
          <mxGeometry x="637" y="622" width="143" height="52" as="geometry" />
        </mxCell>
        <mxCell id="Izek-PB7fgDzVprNoVY3-76" value="" style="shape=link;html=1;rounded=0;strokeColor=light-dark(#FFFFFF, #1b1d1e);fontFamily=Helvetica;fontSize=12;fontColor=#FFFFFF;exitX=0.5;exitY=0;exitDx=0;exitDy=0;" parent="1" source="Izek-PB7fgDzVprNoVY3-70" edge="1">
          <mxGeometry relative="1" as="geometry">
            <mxPoint x="532.9" y="285.5" as="sourcePoint" />
            <mxPoint x="692.9" y="285.5" as="targetPoint" />
          </mxGeometry>
        </mxCell>
        <mxCell id="Izek-PB7fgDzVprNoVY3-77" value="N" style="resizable=0;html=1;whiteSpace=wrap;align=right;verticalAlign=bottom;strokeColor=#FFFFFF;fontFamily=Helvetica;fontSize=12;fontColor=#FFFFFF;fillColor=#182E3E;" parent="Izek-PB7fgDzVprNoVY3-76" connectable="0" vertex="1">
          <mxGeometry x="1" relative="1" as="geometry">
            <mxPoint x="-4" y="1" as="offset" />
          </mxGeometry>
        </mxCell>
        <mxCell id="Izek-PB7fgDzVprNoVY3-78" value="&lt;h3&gt;&lt;span style=&quot;font-weight: normal;&quot;&gt;IS A&lt;/span&gt;&lt;/h3&gt;" style="triangle;whiteSpace=wrap;html=1;strokeColor=#FFFFFF;align=center;verticalAlign=middle;fontFamily=Helvetica;fontSize=12;fontColor=#FFFFFF;fillColor=#182E3E;direction=south;" parent="1" vertex="1">
          <mxGeometry x="663.23" y="728" width="90.54" height="69.73" as="geometry" />
        </mxCell>
        <mxCell id="Izek-PB7fgDzVprNoVY3-79" value="&lt;h2&gt;&lt;span style=&quot;font-weight: 400;&quot;&gt;REPAIR_TECHNICIAN&lt;/span&gt;&lt;/h2&gt;" style="whiteSpace=wrap;html=1;align=center;strokeColor=#FFFFFF;fontColor=#FFFFFF;fillColor=#182E3E;" parent="1" vertex="1">
          <mxGeometry x="454" y="858" width="208" height="52" as="geometry" />
        </mxCell>
        <mxCell id="Izek-PB7fgDzVprNoVY3-80" value="&lt;h2&gt;&lt;span style=&quot;font-weight: 400;&quot;&gt;SALES_ASSOCIATE&lt;/span&gt;&lt;/h2&gt;" style="whiteSpace=wrap;html=1;align=center;strokeColor=#FFFFFF;fontColor=#FFFFFF;fillColor=#182E3E;" parent="1" vertex="1">
          <mxGeometry x="689" y="858" width="195" height="52" as="geometry" />
        </mxCell>
        <mxCell id="Izek-PB7fgDzVprNoVY3-83" value="" style="endArrow=none;html=1;rounded=0;strokeColor=light-dark(#FFFFFF, #1b1d1e);fontFamily=Helvetica;fontSize=12;fontColor=#FFFFFF;entryX=0.5;entryY=1;entryDx=0;entryDy=0;exitX=0;exitY=0.5;exitDx=0;exitDy=0;" parent="1" source="Izek-PB7fgDzVprNoVY3-78" target="Izek-PB7fgDzVprNoVY3-68" edge="1">
          <mxGeometry relative="1" as="geometry">
            <mxPoint x="689" y="598" as="sourcePoint" />
            <mxPoint x="849" y="598" as="targetPoint" />
          </mxGeometry>
        </mxCell>
        <mxCell id="Izek-PB7fgDzVprNoVY3-84" value="" style="endArrow=none;html=1;rounded=0;strokeColor=light-dark(#FFFFFF, #1b1d1e);fontFamily=Helvetica;fontSize=12;fontColor=#FFFFFF;entryX=0.5;entryY=1;entryDx=0;entryDy=0;exitX=0.5;exitY=0;exitDx=0;exitDy=0;" parent="1" source="Izek-PB7fgDzVprNoVY3-79" target="Izek-PB7fgDzVprNoVY3-78" edge="1">
          <mxGeometry relative="1" as="geometry">
            <mxPoint x="689" y="598" as="sourcePoint" />
            <mxPoint x="849" y="598" as="targetPoint" />
          </mxGeometry>
        </mxCell>
        <mxCell id="Izek-PB7fgDzVprNoVY3-85" value="" style="endArrow=none;html=1;rounded=0;strokeColor=light-dark(#FFFFFF, #1b1d1e);fontFamily=Helvetica;fontSize=12;fontColor=#FFFFFF;entryX=0.5;entryY=0;entryDx=0;entryDy=0;exitX=0.5;exitY=0;exitDx=0;exitDy=0;" parent="1" source="Izek-PB7fgDzVprNoVY3-80" target="Izek-PB7fgDzVprNoVY3-78" edge="1">
          <mxGeometry relative="1" as="geometry">
            <mxPoint x="689" y="598" as="sourcePoint" />
            <mxPoint x="849" y="598" as="targetPoint" />
          </mxGeometry>
        </mxCell>
        <mxCell id="G7WZexkPzq9MRGBm2pqB-81" value="" style="endArrow=none;html=1;rounded=0;" edge="1" parent="1" source="Izek-PB7fgDzVprNoVY3-70">
          <mxGeometry relative="1" as="geometry">
            <mxPoint x="650" y="572" as="sourcePoint" />
            <mxPoint x="468" y="416" as="targetPoint" />
          </mxGeometry>
        </mxCell>
        <mxCell id="Izek-PB7fgDzVprNoVY3-70" value="&lt;h2&gt;&lt;span style=&quot;font-weight: 400;&quot;&gt;PERFORMS&lt;/span&gt;&lt;/h2&gt;" style="shape=rhombus;perimeter=rhombusPerimeter;whiteSpace=wrap;html=1;align=center;strokeColor=#FFFFFF;fontColor=#FFFFFF;fillColor=#182E3E;" parent="1" vertex="1">
          <mxGeometry x="364" y="377" width="176.8" height="90.67" as="geometry" />
        </mxCell>
        <mxCell id="G7WZexkPzq9MRGBm2pqB-93" value="" style="line;strokeWidth=1;rotatable=0;dashed=0;labelPosition=right;align=left;verticalAlign=middle;spacingTop=0;spacingLeft=6;points=[];portConstraint=eastwest;" vertex="1" parent="1">
          <mxGeometry x="364" y="884" width="34" height="10" as="geometry" />
        </mxCell>
        <mxCell id="G7WZexkPzq9MRGBm2pqB-98" value="" style="endArrow=none;html=1;rounded=0;exitX=0;exitY=0.5;exitDx=0;exitDy=0;strokeColor=light-dark(#000000,#000000);entryX=0;entryY=0.5;entryDx=0;entryDy=0;shape=link;" edge="1" parent="1" source="Izek-PB7fgDzVprNoVY3-70" target="Izek-PB7fgDzVprNoVY3-79">
          <mxGeometry relative="1" as="geometry">
            <mxPoint x="650" y="624" as="sourcePoint" />
            <mxPoint x="810" y="624" as="targetPoint" />
            <Array as="points">
              <mxPoint x="364" y="884" />
            </Array>
          </mxGeometry>
        </mxCell>
        <mxCell id="G7WZexkPzq9MRGBm2pqB-99" value="1" style="resizable=0;html=1;whiteSpace=wrap;align=right;verticalAlign=bottom;" connectable="0" vertex="1" parent="G7WZexkPzq9MRGBm2pqB-98">
          <mxGeometry x="1" relative="1" as="geometry" />
        </mxCell>
        <mxCell id="G7WZexkPzq9MRGBm2pqB-104" value="1" style="resizable=0;html=1;whiteSpace=wrap;align=right;verticalAlign=bottom;strokeColor=#FFFFFF;fontFamily=Helvetica;fontSize=12;fontColor=#FFFFFF;fillColor=#182E3E;" connectable="0" vertex="1" parent="1">
          <mxGeometry x="442" y="871" as="geometry" />
        </mxCell>
        <mxCell id="G7WZexkPzq9MRGBm2pqB-105" value="&lt;h2&gt;&lt;span style=&quot;font-weight: 400;&quot;&gt;PROCESSES&lt;/span&gt;&lt;/h2&gt;" style="shape=rhombus;perimeter=rhombusPerimeter;whiteSpace=wrap;html=1;align=center;strokeColor=#FFFFFF;fontColor=#FFFFFF;fillColor=#182E3E;" vertex="1" parent="1">
          <mxGeometry x="1508" y="676" width="202.8" height="104" as="geometry" />
        </mxCell>
        <mxCell id="G7WZexkPzq9MRGBm2pqB-106" value="" style="endArrow=none;html=1;rounded=0;strokeColor=light-dark(#23445D, #1b1d1e);fontFamily=Helvetica;fontSize=12;fontColor=#FFFFFF;entryX=0.5;entryY=1;entryDx=0;entryDy=0;exitX=0.5;exitY=1;exitDx=0;exitDy=0;shape=link;" edge="1" parent="1" source="G7WZexkPzq9MRGBm2pqB-105" target="Izek-PB7fgDzVprNoVY3-80">
          <mxGeometry relative="1" as="geometry">
            <mxPoint x="893" y="1001" as="sourcePoint" />
            <mxPoint x="819" y="1001" as="targetPoint" />
            <Array as="points">
              <mxPoint x="1612" y="1014" />
              <mxPoint x="1196" y="1014" />
              <mxPoint x="787" y="1014" />
            </Array>
          </mxGeometry>
        </mxCell>
        <mxCell id="G7WZexkPzq9MRGBm2pqB-107" value="1" style="resizable=0;html=1;whiteSpace=wrap;align=right;verticalAlign=bottom;strokeColor=#FFFFFF;fontFamily=Helvetica;fontSize=12;fontColor=#FFFFFF;fillColor=#182E3E;" connectable="0" vertex="1" parent="G7WZexkPzq9MRGBm2pqB-106">
          <mxGeometry x="1" relative="1" as="geometry">
            <mxPoint x="20" y="26" as="offset" />
          </mxGeometry>
        </mxCell>
        <mxCell id="G7WZexkPzq9MRGBm2pqB-108" value="" style="endArrow=none;html=1;rounded=0;exitX=0.5;exitY=0;exitDx=0;exitDy=0;strokeColor=light-dark(#000000,#010101);shape=link;" edge="1" parent="1" source="G7WZexkPzq9MRGBm2pqB-105">
          <mxGeometry relative="1" as="geometry">
            <mxPoint x="650" y="741" as="sourcePoint" />
            <mxPoint x="1313" y="559" as="targetPoint" />
            <Array as="points">
              <mxPoint x="1612" y="559" />
            </Array>
          </mxGeometry>
        </mxCell>
        <mxCell id="G7WZexkPzq9MRGBm2pqB-109" value="N" style="resizable=0;html=1;whiteSpace=wrap;align=right;verticalAlign=bottom;" connectable="0" vertex="1" parent="G7WZexkPzq9MRGBm2pqB-108">
          <mxGeometry x="1" relative="1" as="geometry" />
        </mxCell>
        <mxCell id="G7WZexkPzq9MRGBm2pqB-110" value="N" style="resizable=0;html=1;whiteSpace=wrap;align=right;verticalAlign=bottom;strokeColor=#FFFFFF;fontFamily=Helvetica;fontSize=12;fontColor=#FFFFFF;fillColor=#182E3E;" connectable="0" vertex="1" parent="1">
          <mxGeometry x="851" y="424" as="geometry">
            <mxPoint x="503" y="132" as="offset" />
          </mxGeometry>
        </mxCell>
      </root>
    </mxGraphModel>
  </diagram>
</mxfile>
